<svg width="22" height="21" viewBox="0 0 22 21" fill="none" xmlns="http://www.w3.org/2000/svg">
<path fill-rule="evenodd" clip-rule="evenodd" d="M8.55773 3.69905e-06C8.56547 5.6064e-06 8.57327 7.51375e-06 8.58115 7.51375e-06L13.4423 3.69905e-06C13.5525 -2.32422e-05 13.6484 -4.66071e-05 13.7399 0.00549424C14.8967 0.0755556 15.9097 0.805693 16.342 1.88101C16.3762 1.96606 16.4065 2.05703 16.4413 2.1616L16.4487 2.18378C16.4951 2.32295 16.5051 2.35174 16.5137 2.37301C16.6578 2.73145 16.9955 2.97482 17.3811 2.99818C17.4037 2.99955 17.4376 3.00001 17.5944 3.00001C17.6133 3.00001 17.632 3 17.6503 3C17.9651 2.99994 18.1965 2.99989 18.3944 3.0195C20.2917 3.20748 21.7925 4.70837 21.9805 6.60562C22.0001 6.80349 22.0001 7.02553 22 7.32536C22 7.34239 22 7.35968 22 7.37723V15.2413C22 16.0463 22 16.7106 21.9558 17.2518C21.9099 17.8139 21.8113 18.3306 21.564 18.816C21.1805 19.5686 20.5686 20.1805 19.816 20.564C19.3306 20.8113 18.8139 20.9099 18.2518 20.9558C17.7106 21 17.0463 21 16.2413 21H5.75869C4.95373 21 4.28938 21 3.74819 20.9558C3.18609 20.9099 2.66939 20.8113 2.18405 20.564C1.4314 20.1805 0.819481 19.5686 0.435988 18.816C0.188697 18.3306 0.0901326 17.8139 0.0442074 17.2518C-9.93162e-06 16.7106 5.57831e-07 16.0463 1.33132e-05 15.2413L1.37901e-05 7.37723C1.37901e-05 7.35968 1.02138e-05 7.34239 6.75671e-06 7.32536C-5.48745e-05 7.02554 -0.000100413 6.80349 0.0195037 6.60562C0.207482 4.70837 1.70837 3.20748 3.60563 3.0195C3.80355 2.99989 4.03488 2.99994 4.34974 3C4.36807 3 4.38669 3.00001 4.4056 3.00001C4.5624 3.00001 4.59634 2.99955 4.61895 2.99818C5.00456 2.97482 5.34223 2.73145 5.48633 2.37301C5.49488 2.35174 5.50494 2.32296 5.55133 2.18378C5.55382 2.1763 5.55629 2.16888 5.55874 2.16154C5.59356 2.057 5.62385 1.96605 5.65804 1.88101C6.09033 0.805692 7.10334 0.0755556 8.26018 0.00549424C8.35166 -4.66071e-05 8.44753 -2.32422e-05 8.55773 3.69905e-06ZM8.58115 2.00001C8.43445 2.00001 8.40396 2.00045 8.38108 2.00184C7.99547 2.02519 7.6578 2.26857 7.5137 2.62701C7.50515 2.64828 7.49509 2.67706 7.4487 2.81624C7.4462 2.82372 7.44373 2.83113 7.44129 2.83848C7.40647 2.94302 7.37618 3.03397 7.34199 3.11901C6.9097 4.19432 5.89669 4.92446 4.73985 4.99452C4.6483 5.00006 4.54794 5.00004 4.43125 5.00001C4.42278 5.00001 4.41424 5.00001 4.4056 5.00001C4.01081 5.00001 3.88845 5.00127 3.80282 5.00975C2.85419 5.10374 2.10375 5.85419 2.00976 6.80281C2.00124 6.88877 2.00001 7.00297 2.00001 7.37723V15.2C2.00001 16.0566 2.00079 16.6389 2.03757 17.089C2.07339 17.5274 2.13831 17.7516 2.218 17.908C2.40975 18.2843 2.71571 18.5903 3.09203 18.782C3.24843 18.8617 3.47264 18.9266 3.91105 18.9625C4.36114 18.9992 4.94343 19 5.80001 19H16.2C17.0566 19 17.6389 18.9992 18.089 18.9625C18.5274 18.9266 18.7516 18.8617 18.908 18.782C19.2843 18.5903 19.5903 18.2843 19.782 17.908C19.8617 17.7516 19.9266 17.5274 19.9625 17.089C19.9992 16.6389 20 16.0566 20 15.2V7.37723C20 7.00298 19.9988 6.88877 19.9903 6.80281C19.8963 5.85419 19.1458 5.10374 18.1972 5.00975C18.1116 5.00127 17.9892 5.00001 17.5944 5.00001L17.5688 5.00001C17.4521 5.00004 17.3517 5.00006 17.2602 4.99452C16.1033 4.92446 15.0903 4.19432 14.658 3.11901C14.6238 3.03395 14.5935 2.94299 14.5587 2.83842L14.5513 2.81624C14.5049 2.67707 14.4949 2.64828 14.4863 2.62701C14.3422 2.26857 14.0046 2.02519 13.6189 2.00184C13.5961 2.00045 13.5656 2.00001 13.4189 2.00001H8.58115ZM11 8.50001C9.34316 8.50001 8.00001 9.84315 8.00001 11.5C8.00001 13.1569 9.34316 14.5 11 14.5C12.6569 14.5 14 13.1569 14 11.5C14 9.84315 12.6569 8.50001 11 8.50001ZM6.00001 11.5C6.00001 8.73858 8.23859 6.50001 11 6.50001C13.7614 6.50001 16 8.73858 16 11.5C16 14.2614 13.7614 16.5 11 16.5C8.23859 16.5 6.00001 14.2614 6.00001 11.5Z" fill="#F0F0F0"/>
</svg>
