<svg xmlns="http://www.w3.org/2000/svg" xmlns:xlink="http://www.w3.org/1999/xlink" width="600" zoomAndPan="magnify" viewBox="0 0 450 449.999984" height="600" preserveAspectRatio="xMidYMid meet" version="1.0"><defs><g/><clipPath id="37396125b5"><path d="M 391 178.078125 L 430.722656 178.078125 L 430.722656 245 L 391 245 Z M 391 178.078125 " clip-rule="nonzero"/></clipPath><clipPath id="69a6491b24"><path d="M 289.742188 245.582031 L 304.890625 245.582031 L 304.890625 260.726562 L 289.742188 260.726562 Z M 289.742188 245.582031 " clip-rule="nonzero"/></clipPath><clipPath id="88f009ecd8"><path d="M 297.316406 245.582031 C 293.132812 245.582031 289.742188 248.972656 289.742188 253.15625 C 289.742188 257.335938 293.132812 260.726562 297.316406 260.726562 C 301.5 260.726562 304.890625 257.335938 304.890625 253.15625 C 304.890625 248.972656 301.5 245.582031 297.316406 245.582031 Z M 297.316406 245.582031 " clip-rule="nonzero"/></clipPath><clipPath id="89e3eb43be"><path d="M 276 125 L 377 125 L 377 254 L 276 254 Z M 276 125 " clip-rule="nonzero"/></clipPath><clipPath id="b51b32b779"><path d="M 243.003906 149.898438 L 365.710938 97.308594 L 418.300781 220.011719 L 295.59375 272.601562 Z M 243.003906 149.898438 " clip-rule="nonzero"/></clipPath><clipPath id="56f7312741"><path d="M 243.003906 149.898438 L 365.710938 97.308594 L 418.300781 220.011719 L 295.59375 272.601562 Z M 243.003906 149.898438 " clip-rule="nonzero"/></clipPath><clipPath id="cda953e77e"><path d="M 354 114 L 360 114 L 360 123 L 354 123 Z M 354 114 " clip-rule="nonzero"/></clipPath><clipPath id="bdfa4b13cb"><path d="M 243.003906 149.898438 L 365.710938 97.308594 L 418.300781 220.011719 L 295.59375 272.601562 Z M 243.003906 149.898438 " clip-rule="nonzero"/></clipPath><clipPath id="1048aa861d"><path d="M 243.003906 149.898438 L 365.710938 97.308594 L 418.300781 220.011719 L 295.59375 272.601562 Z M 243.003906 149.898438 " clip-rule="nonzero"/></clipPath><clipPath id="20b8c607ae"><path d="M 331 111 L 336 111 L 336 120 L 331 120 Z M 331 111 " clip-rule="nonzero"/></clipPath><clipPath id="7ef013592b"><path d="M 243.003906 149.898438 L 365.710938 97.308594 L 418.300781 220.011719 L 295.59375 272.601562 Z M 243.003906 149.898438 " clip-rule="nonzero"/></clipPath><clipPath id="c5ce2a76c0"><path d="M 243.003906 149.898438 L 365.710938 97.308594 L 418.300781 220.011719 L 295.59375 272.601562 Z M 243.003906 149.898438 " clip-rule="nonzero"/></clipPath><clipPath id="388c280a45"><path d="M 308 121 L 315 121 L 315 129 L 308 129 Z M 308 121 " clip-rule="nonzero"/></clipPath><clipPath id="dec586e537"><path d="M 243.003906 149.898438 L 365.710938 97.308594 L 418.300781 220.011719 L 295.59375 272.601562 Z M 243.003906 149.898438 " clip-rule="nonzero"/></clipPath><clipPath id="013bf04568"><path d="M 243.003906 149.898438 L 365.710938 97.308594 L 418.300781 220.011719 L 295.59375 272.601562 Z M 243.003906 149.898438 " clip-rule="nonzero"/></clipPath><clipPath id="b72f2baa13"><path d="M 293 141 L 302 141 L 302 147 L 293 147 Z M 293 141 " clip-rule="nonzero"/></clipPath><clipPath id="db6b6100d8"><path d="M 243.003906 149.898438 L 365.710938 97.308594 L 418.300781 220.011719 L 295.59375 272.601562 Z M 243.003906 149.898438 " clip-rule="nonzero"/></clipPath><clipPath id="08714ba6ba"><path d="M 243.003906 149.898438 L 365.710938 97.308594 L 418.300781 220.011719 L 295.59375 272.601562 Z M 243.003906 149.898438 " clip-rule="nonzero"/></clipPath><clipPath id="d00f30f818"><path d="M 290 165 L 299 165 L 299 170 L 290 170 Z M 290 165 " clip-rule="nonzero"/></clipPath><clipPath id="74dcf3e95e"><path d="M 243.003906 149.898438 L 365.710938 97.308594 L 418.300781 220.011719 L 295.59375 272.601562 Z M 243.003906 149.898438 " clip-rule="nonzero"/></clipPath><clipPath id="c4b06b9c27"><path d="M 243.003906 149.898438 L 365.710938 97.308594 L 418.300781 220.011719 L 295.59375 272.601562 Z M 243.003906 149.898438 " clip-rule="nonzero"/></clipPath><clipPath id="bb83ff65e3"><path d="M 365 193 L 372 193 L 372 201 L 365 201 Z M 365 193 " clip-rule="nonzero"/></clipPath><clipPath id="2472335a4f"><path d="M 243.003906 149.898438 L 365.710938 97.308594 L 418.300781 220.011719 L 295.59375 272.601562 Z M 243.003906 149.898438 " clip-rule="nonzero"/></clipPath><clipPath id="c09a4eff31"><path d="M 243.003906 149.898438 L 365.710938 97.308594 L 418.300781 220.011719 L 295.59375 272.601562 Z M 243.003906 149.898438 " clip-rule="nonzero"/></clipPath><clipPath id="4ecb1c8ac1"><path d="M 378 175 L 387 175 L 387 181 L 378 181 Z M 378 175 " clip-rule="nonzero"/></clipPath><clipPath id="ea85d495f0"><path d="M 243.003906 149.898438 L 365.710938 97.308594 L 418.300781 220.011719 L 295.59375 272.601562 Z M 243.003906 149.898438 " clip-rule="nonzero"/></clipPath><clipPath id="c18b4c9389"><path d="M 243.003906 149.898438 L 365.710938 97.308594 L 418.300781 220.011719 L 295.59375 272.601562 Z M 243.003906 149.898438 " clip-rule="nonzero"/></clipPath><clipPath id="88ad136e03"><path d="M 381 152 L 390 152 L 390 157 L 381 157 Z M 381 152 " clip-rule="nonzero"/></clipPath><clipPath id="bbd8b4397b"><path d="M 243.003906 149.898438 L 365.710938 97.308594 L 418.300781 220.011719 L 295.59375 272.601562 Z M 243.003906 149.898438 " clip-rule="nonzero"/></clipPath><clipPath id="bd5e956a15"><path d="M 243.003906 149.898438 L 365.710938 97.308594 L 418.300781 220.011719 L 295.59375 272.601562 Z M 243.003906 149.898438 " clip-rule="nonzero"/></clipPath><clipPath id="aff923a49b"><path d="M 372 129 L 380 129 L 380 136 L 372 136 Z M 372 129 " clip-rule="nonzero"/></clipPath><clipPath id="6132e1a3e8"><path d="M 243.003906 149.898438 L 365.710938 97.308594 L 418.300781 220.011719 L 295.59375 272.601562 Z M 243.003906 149.898438 " clip-rule="nonzero"/></clipPath><clipPath id="b16de7b035"><path d="M 243.003906 149.898438 L 365.710938 97.308594 L 418.300781 220.011719 L 295.59375 272.601562 Z M 243.003906 149.898438 " clip-rule="nonzero"/></clipPath><clipPath id="aef9d95140"><path d="M 299 229 L 314 229 L 314 261 L 299 261 Z M 299 229 " clip-rule="nonzero"/></clipPath><clipPath id="e0412bfabd"><path d="M 243.003906 149.898438 L 365.710938 97.308594 L 418.300781 220.011719 L 295.59375 272.601562 Z M 243.003906 149.898438 " clip-rule="nonzero"/></clipPath><clipPath id="19eb3d6021"><path d="M 243.003906 149.898438 L 365.710938 97.308594 L 418.300781 220.011719 L 295.59375 272.601562 Z M 243.003906 149.898438 " clip-rule="nonzero"/></clipPath><clipPath id="eec4508b66"><path d="M 295 223 L 309 223 L 309 252 L 295 252 Z M 295 223 " clip-rule="nonzero"/></clipPath><clipPath id="3cada98c15"><path d="M 243.003906 149.898438 L 365.710938 97.308594 L 418.300781 220.011719 L 295.59375 272.601562 Z M 243.003906 149.898438 " clip-rule="nonzero"/></clipPath><clipPath id="98d7f6aaca"><path d="M 243.003906 149.898438 L 365.710938 97.308594 L 418.300781 220.011719 L 295.59375 272.601562 Z M 243.003906 149.898438 " clip-rule="nonzero"/></clipPath><clipPath id="48b7a5b5d1"><path d="M 291 216 L 305 216 L 305 244 L 291 244 Z M 291 216 " clip-rule="nonzero"/></clipPath><clipPath id="5ecc631f7c"><path d="M 243.003906 149.898438 L 365.710938 97.308594 L 418.300781 220.011719 L 295.59375 272.601562 Z M 243.003906 149.898438 " clip-rule="nonzero"/></clipPath><clipPath id="3e36ccf81d"><path d="M 243.003906 149.898438 L 365.710938 97.308594 L 418.300781 220.011719 L 295.59375 272.601562 Z M 243.003906 149.898438 " clip-rule="nonzero"/></clipPath><clipPath id="671c23c94f"><path d="M 316 226 L 329 226 L 329 254 L 316 254 Z M 316 226 " clip-rule="nonzero"/></clipPath><clipPath id="941d365bbc"><path d="M 243.003906 149.898438 L 365.710938 97.308594 L 418.300781 220.011719 L 295.59375 272.601562 Z M 243.003906 149.898438 " clip-rule="nonzero"/></clipPath><clipPath id="d332566411"><path d="M 243.003906 149.898438 L 365.710938 97.308594 L 418.300781 220.011719 L 295.59375 272.601562 Z M 243.003906 149.898438 " clip-rule="nonzero"/></clipPath><clipPath id="3852298b80"><path d="M 307 228 L 321 228 L 321 257 L 307 257 Z M 307 228 " clip-rule="nonzero"/></clipPath><clipPath id="9bb1684f27"><path d="M 243.003906 149.898438 L 365.710938 97.308594 L 418.300781 220.011719 L 295.59375 272.601562 Z M 243.003906 149.898438 " clip-rule="nonzero"/></clipPath><clipPath id="d0388e964b"><path d="M 243.003906 149.898438 L 365.710938 97.308594 L 418.300781 220.011719 L 295.59375 272.601562 Z M 243.003906 149.898438 " clip-rule="nonzero"/></clipPath><clipPath id="4e8552e904"><path d="M 320 150 L 347 150 L 347 196 L 320 196 Z M 320 150 " clip-rule="nonzero"/></clipPath><clipPath id="28a556f3ef"><path d="M 243.003906 149.898438 L 365.710938 97.308594 L 418.300781 220.011719 L 295.59375 272.601562 Z M 243.003906 149.898438 " clip-rule="nonzero"/></clipPath><clipPath id="23acfd92df"><path d="M 243.003906 149.898438 L 365.710938 97.308594 L 418.300781 220.011719 L 295.59375 272.601562 Z M 243.003906 149.898438 " clip-rule="nonzero"/></clipPath><clipPath id="86145b0fb2"><path d="M 326 169 L 338 169 L 338 193 L 326 193 Z M 326 169 " clip-rule="nonzero"/></clipPath><clipPath id="116dc252c7"><path d="M 243.003906 149.898438 L 365.710938 97.308594 L 418.300781 220.011719 L 295.59375 272.601562 Z M 243.003906 149.898438 " clip-rule="nonzero"/></clipPath><clipPath id="c49a935bff"><path d="M 243.003906 149.898438 L 365.710938 97.308594 L 418.300781 220.011719 L 295.59375 272.601562 Z M 243.003906 149.898438 " clip-rule="nonzero"/></clipPath></defs><g fill="#6b6765" fill-opacity="1"><g transform="translate(43.698474, 327.284928)"><g><path d="M 51.625 0 L 51.625 -7.046875 L 15.84375 -7.046875 L 15.84375 -84.609375 L 8.03125 -84.609375 L 8.03125 0 Z M 51.625 0 "/></g></g></g><g fill="#6b6765" fill-opacity="1"><g transform="translate(92.937265, 327.284928)"><g><path d="M 53.6875 -25.59375 L 53.6875 -29.9375 C 53.6875 -45.875 46.421875 -58.6875 29.609375 -58.6875 C 12.796875 -58.6875 5.3125 -45.875 5.3125 -29.9375 L 5.3125 -27.546875 C 5.3125 -11.609375 12.796875 1.1875 30.15625 1.1875 C 46.3125 1.1875 53.6875 -9.109375 53.6875 -18 L 53.6875 -18.4375 L 46.421875 -18.4375 C 46.421875 -12.25 41.65625 -5.203125 30.15625 -5.203125 C 18.65625 -5.203125 13.34375 -13.015625 13.015625 -25.59375 Z M 29.5 -52.28125 C 40.453125 -52.28125 45.5625 -44.359375 45.984375 -31.890625 L 13.015625 -31.890625 C 13.34375 -44.359375 18.65625 -52.28125 29.5 -52.28125 Z M 29.5 -52.28125 "/></g></g></g><g fill="#6b6765" fill-opacity="1"><g transform="translate(147.92427, 327.284928)"><g><path d="M 42.953125 0 L 49.25 0 L 48.59375 -16.265625 L 48.59375 -37.3125 C 48.59375 -50 43.71875 -58.6875 27.765625 -58.6875 C 10.84375 -58.6875 7.046875 -48.15625 7.046875 -39.484375 L 7.046875 -38.5 L 14.3125 -38.5 C 14.3125 -45.984375 16.8125 -52.28125 27.65625 -52.28125 C 37.859375 -52.28125 41 -47.1875 41 -37.3125 L 41 -35.796875 L 23.640625 -33.078125 C 14.3125 -31.671875 4.875 -28.09375 4.875 -15.625 L 4.875 -14.53125 C 4.875 -5.3125 10.953125 1.1875 21.484375 1.1875 C 31.453125 1.1875 37.96875 -3.03125 41.765625 -8.03125 Z M 23.421875 -5.421875 C 15.734375 -5.421875 12.46875 -10.09375 12.46875 -15.1875 L 12.46875 -16.15625 C 12.46875 -22.671875 16.921875 -26.25 24.296875 -27.546875 L 41 -30.265625 L 41 -14.53125 C 38.9375 -11.171875 34.0625 -5.421875 23.421875 -5.421875 Z M 23.421875 -5.421875 "/></g></g></g><g fill="#6b6765" fill-opacity="1"><g transform="translate(199.440652, 327.284928)"><g><path d="M 29.9375 -58.6875 C 22.234375 -58.6875 16.921875 -54.671875 13.890625 -49.890625 L 12.796875 -57.484375 L 6.515625 -57.484375 L 7.15625 -41.21875 L 7.15625 0 L 14.75 0 L 14.75 -42.625 C 17.140625 -46.421875 21.375 -51.3125 30.046875 -51.3125 L 31.5625 -51.3125 L 31.5625 -58.578125 C 31.453125 -58.578125 30.703125 -58.6875 29.9375 -58.6875 Z M 29.9375 -58.6875 "/></g></g></g><g fill="#6b6765" fill-opacity="1"><g transform="translate(231.543288, 327.284928)"><g><path d="M 50.65625 0 L 50.65625 -40.234375 C 50.65625 -50.984375 44.578125 -58.6875 33.1875 -58.6875 C 23.328125 -58.6875 17.25 -54.453125 13.890625 -49.359375 L 12.796875 -57.484375 L 6.515625 -57.484375 L 7.15625 -41.21875 L 7.15625 0 L 14.75 0 L 14.75 -42.953125 C 17.140625 -46.75 21.578125 -51.84375 30.59375 -51.84375 C 38.1875 -51.84375 43.0625 -47.828125 43.0625 -39.15625 L 43.0625 0 Z M 50.65625 0 "/></g></g></g><g fill="#6b6765" fill-opacity="1"><g transform="translate(284.794961, 327.284928)"><g><path d="M 7.921875 0 L 15.515625 0 L 15.515625 -57.484375 L 7.921875 -57.484375 Z M 16.59375 -80.8125 L 6.828125 -80.8125 L 6.828125 -71.046875 L 16.59375 -71.046875 Z M 16.59375 -80.8125 "/></g></g></g><g fill="#6b6765" fill-opacity="1"><g transform="translate(304.208144, 327.284928)"><g><path d="M 50.65625 0 L 50.65625 -40.234375 C 50.65625 -50.984375 44.578125 -58.6875 33.1875 -58.6875 C 23.328125 -58.6875 17.25 -54.453125 13.890625 -49.359375 L 12.796875 -57.484375 L 6.515625 -57.484375 L 7.15625 -41.21875 L 7.15625 0 L 14.75 0 L 14.75 -42.953125 C 17.140625 -46.75 21.578125 -51.84375 30.59375 -51.84375 C 38.1875 -51.84375 43.0625 -47.828125 43.0625 -39.15625 L 43.0625 0 Z M 50.65625 0 "/></g></g></g><g fill="#6b6765" fill-opacity="1"><g transform="translate(357.459817, 327.284928)"><g><path d="M 43.609375 0.109375 C 43.609375 10.625 39.59375 16.265625 28.53125 16.265625 C 17.78125 16.265625 13.671875 10.84375 13.671875 0 L 6.40625 0 L 6.40625 1.40625 C 6.40625 13.234375 12.046875 22.890625 28.640625 22.890625 C 45.015625 22.890625 51.203125 13.453125 51.203125 0.546875 L 51.203125 -41.21875 L 51.84375 -57.484375 L 45.5625 -57.484375 L 44.46875 -49.78125 C 41.4375 -54.671875 36.125 -58.6875 27.328125 -58.6875 C 11.71875 -58.6875 5.3125 -46.421875 5.3125 -32 L 5.3125 -29.609375 C 5.3125 -14.96875 11.71875 -2.921875 27.328125 -2.921875 C 35.359375 -2.921875 40.453125 -6.1875 43.609375 -10.515625 Z M 43.609375 -42.953125 L 43.609375 -18.546875 C 41.21875 -14.859375 36.875 -9.765625 28.96875 -9.765625 C 18.21875 -9.765625 13.015625 -17.578125 13.015625 -29.609375 L 13.015625 -32 C 13.015625 -43.828125 18.21875 -51.84375 28.96875 -51.84375 C 36.875 -51.84375 41.21875 -46.75 43.609375 -42.953125 Z M 43.609375 -42.953125 "/></g></g></g><g fill="#6b6765" fill-opacity="1"><g transform="translate(45.809776, 181.080913)"><g><path d="M 37.75 1.40625 C 52.5 1.40625 61.0625 -3.25 67.359375 -8.453125 L 67.359375 -45.78125 L 38.609375 -45.78125 L 38.609375 -30.59375 L 49.78125 -30.59375 L 49.78125 -17.03125 C 47.1875 -15.1875 43.28125 -13.78125 38.296875 -13.78125 L 37.3125 -13.78125 C 24.953125 -13.78125 22.125 -23.21875 22.125 -40.140625 L 22.125 -44.46875 C 22.125 -61.390625 25.0625 -70.828125 36.65625 -70.828125 L 37.640625 -70.828125 C 47.40625 -70.828125 49.890625 -64.109375 49.890625 -52.5 L 67.46875 -52.5 L 67.46875 -56.40625 C 67.46875 -77.5625 56.84375 -86.015625 36.65625 -86.015625 C 14.75 -86.015625 4.234375 -73.765625 4.234375 -44.46875 L 4.234375 -40.140625 C 4.234375 -10.84375 14.75 1.40625 37.75 1.40625 Z M 37.75 1.40625 "/></g></g></g><g fill="#6b6765" fill-opacity="1"><g transform="translate(114.787692, 181.080913)"><g><path d="M 39.921875 0 L 55.3125 0 L 54.234375 -16.265625 L 54.234375 -36.984375 C 54.234375 -50.875 48.59375 -58.90625 29.828125 -58.90625 C 10.84375 -58.90625 5.421875 -49.46875 5.421875 -39.484375 L 5.421875 -38.5 L 21.578125 -38.5 C 21.578125 -42.296875 23.109375 -45.875 29.28125 -45.875 C 35.140625 -45.875 36.984375 -43.0625 37.09375 -37.421875 L 23.859375 -35.359375 C 11.828125 -33.515625 3.25 -29.390625 3.25 -16.921875 L 3.25 -15.84375 C 3.25 -6.609375 7.921875 1.40625 20.828125 1.40625 C 28.859375 1.40625 34.8125 -1.625 38.828125 -5.96875 Z M 27.125 -12.46875 C 22.125 -12.46875 20.28125 -15.40625 20.28125 -18.328125 L 20.28125 -18.984375 C 20.28125 -22.453125 22.015625 -24.953125 27.328125 -25.8125 L 37.09375 -27.328125 L 37.09375 -16.8125 C 35.25 -14.859375 32 -12.46875 27.125 -12.46875 Z M 27.125 -12.46875 "/></g></g></g><g fill="#6b6765" fill-opacity="1"><g transform="translate(170.316967, 181.080913)"><g><path d="M 5.859375 0 L 23 0 L 23 -57.484375 L 5.859375 -57.484375 Z M 23.421875 -83.734375 L 5.421875 -83.734375 L 5.421875 -65.625 L 23.421875 -65.625 Z M 23.421875 -83.734375 "/></g></g></g><g fill="#6b6765" fill-opacity="1"><g transform="translate(195.152993, 181.080913)"><g><path d="M 39.921875 0 L 55.3125 0 L 54.234375 -16.265625 L 54.234375 -36.984375 C 54.234375 -50.875 48.59375 -58.90625 29.828125 -58.90625 C 10.84375 -58.90625 5.421875 -49.46875 5.421875 -39.484375 L 5.421875 -38.5 L 21.578125 -38.5 C 21.578125 -42.296875 23.109375 -45.875 29.28125 -45.875 C 35.140625 -45.875 36.984375 -43.0625 37.09375 -37.421875 L 23.859375 -35.359375 C 11.828125 -33.515625 3.25 -29.390625 3.25 -16.921875 L 3.25 -15.84375 C 3.25 -6.609375 7.921875 1.40625 20.828125 1.40625 C 28.859375 1.40625 34.8125 -1.625 38.828125 -5.96875 Z M 27.125 -12.46875 C 22.125 -12.46875 20.28125 -15.40625 20.28125 -18.328125 L 20.28125 -18.984375 C 20.28125 -22.453125 22.015625 -24.953125 27.328125 -25.8125 L 37.09375 -27.328125 L 37.09375 -16.8125 C 35.25 -14.859375 32 -12.46875 27.125 -12.46875 Z M 27.125 -12.46875 "/></g></g></g><path stroke-linecap="round" transform="matrix(0.75, 0, 0, 0.75, 26.813991, 204.163035)" fill="none" stroke-linejoin="miter" d="M 10.998013 11.00137 L 317.617828 11.00137 " stroke="#03989e" stroke-width="22" stroke-opacity="1" stroke-miterlimit="4"/><path stroke-linecap="round" transform="matrix(0.000000001309, -0.75, 0.75, 0.000000001309, 19.313946, 354.05798)" fill="none" stroke-linejoin="miter" d="M 9.999183 9.998073 L 351.34296 9.998072 " stroke="#03989e" stroke-width="20" stroke-opacity="1" stroke-miterlimit="4"/><path stroke-linecap="round" transform="matrix(0.75, 0, 0, 0.75, 372.843289, 204.23852)" fill="none" stroke-linejoin="miter" d="M 11.000616 10.999682 L 55.005828 10.999682 " stroke="#03989e" stroke-width="22" stroke-opacity="1" stroke-miterlimit="4"/><g clip-path="url(#37396125b5)"><path fill="#03989e" d="M 396.949219 178.449219 C 398.421875 178.449219 399.824219 179.035156 400.859375 180.070312 L 428.5 207.703125 C 430.660156 209.867188 430.660156 213.371094 428.5 215.523438 L 400.859375 243.164062 C 398.699219 245.320312 395.199219 245.316406 393.046875 243.152344 C 390.890625 241 390.890625 237.507812 393.046875 235.34375 L 416.777344 211.621094 L 393.046875 187.890625 C 390.882812 185.730469 390.882812 182.230469 393.046875 180.070312 C 394.082031 179.035156 395.484375 178.449219 396.949219 178.449219 " fill-opacity="1" fill-rule="nonzero"/></g><g clip-path="url(#69a6491b24)"><g clip-path="url(#88f009ecd8)"><path fill="#ffffff" d="M 289.742188 245.582031 L 304.890625 245.582031 L 304.890625 260.726562 L 289.742188 260.726562 Z M 289.742188 245.582031 " fill-opacity="1" fill-rule="nonzero"/></g></g><g clip-path="url(#89e3eb43be)"><g clip-path="url(#b51b32b779)"><g clip-path="url(#56f7312741)"><path fill="#03989e" d="M 305.652344 148.179688 C 303.023438 154.757812 302.347656 161.894531 303.695312 168.816406 C 304.957031 175.269531 307.90625 181.242188 312.246094 186.148438 L 311.113281 188.980469 L 291.847656 197.460938 C 291.832031 197.46875 291.816406 197.480469 291.800781 197.488281 C 291.757812 197.507812 291.714844 197.53125 291.675781 197.558594 C 291.636719 197.582031 291.601562 197.605469 291.566406 197.628906 C 291.53125 197.65625 291.5 197.6875 291.46875 197.71875 C 291.433594 197.75 291.398438 197.78125 291.371094 197.816406 C 291.34375 197.847656 291.316406 197.878906 291.292969 197.914062 C 291.265625 197.957031 291.234375 197.996094 291.210938 198.039062 C 291.203125 198.054688 291.191406 198.066406 291.183594 198.082031 L 276.367188 226.460938 C 276.363281 226.46875 276.359375 226.476562 276.355469 226.488281 C 276.332031 226.53125 276.316406 226.582031 276.300781 226.628906 C 276.285156 226.667969 276.269531 226.703125 276.257812 226.742188 C 276.246094 226.785156 276.242188 226.832031 276.234375 226.875 C 276.226562 226.917969 276.21875 226.960938 276.214844 227.007812 C 276.210938 227.050781 276.214844 227.09375 276.21875 227.140625 C 276.21875 227.183594 276.21875 227.226562 276.222656 227.269531 C 276.230469 227.316406 276.242188 227.359375 276.25 227.402344 C 276.261719 227.445312 276.269531 227.488281 276.28125 227.53125 C 276.296875 227.570312 276.3125 227.605469 276.332031 227.644531 C 276.351562 227.691406 276.371094 227.734375 276.394531 227.78125 C 276.398438 227.789062 276.402344 227.796875 276.40625 227.808594 C 276.425781 227.839844 276.449219 227.863281 276.472656 227.894531 C 276.496094 227.925781 276.515625 227.960938 276.542969 227.992188 C 276.578125 228.035156 276.621094 228.070312 276.660156 228.109375 C 276.683594 228.128906 276.703125 228.152344 276.726562 228.171875 C 276.796875 228.226562 276.871094 228.277344 276.949219 228.316406 C 277.015625 228.351562 277.082031 228.378906 277.148438 228.402344 C 277.164062 228.40625 277.175781 228.410156 277.191406 228.414062 C 277.261719 228.4375 277.332031 228.453125 277.402344 228.460938 C 277.40625 228.460938 277.410156 228.460938 277.414062 228.460938 C 277.480469 228.472656 277.550781 228.472656 277.621094 228.472656 C 277.636719 228.472656 277.652344 228.472656 277.664062 228.472656 C 277.734375 228.46875 277.804688 228.457031 277.871094 228.445312 C 277.886719 228.441406 277.902344 228.4375 277.921875 228.433594 C 277.988281 228.414062 278.054688 228.394531 278.117188 228.367188 C 278.121094 228.367188 278.125 228.367188 278.128906 228.363281 C 278.1875 228.339844 278.242188 228.3125 278.296875 228.277344 L 303.734375 212.976562 L 309.023438 215.09375 L 307.363281 219.238281 C 307.082031 219.945312 307.425781 220.746094 308.132812 221.027344 L 321.808594 226.5 C 322.144531 226.632812 322.523438 226.628906 322.859375 226.484375 C 323.195312 226.34375 323.460938 226.070312 323.597656 225.730469 L 325.253906 221.585938 L 330.542969 223.703125 L 338.410156 252.320312 C 338.414062 252.332031 338.417969 252.339844 338.421875 252.347656 C 338.433594 252.398438 338.457031 252.445312 338.476562 252.492188 C 338.492188 252.527344 338.503906 252.566406 338.523438 252.601562 C 338.542969 252.640625 338.570312 252.679688 338.59375 252.714844 C 338.621094 252.753906 338.644531 252.792969 338.671875 252.824219 C 338.699219 252.859375 338.730469 252.890625 338.761719 252.921875 C 338.792969 252.953125 338.824219 252.984375 338.855469 253.011719 C 338.890625 253.042969 338.929688 253.066406 338.964844 253.089844 C 339.003906 253.113281 339.039062 253.140625 339.078125 253.164062 C 339.113281 253.183594 339.152344 253.195312 339.1875 253.214844 C 339.234375 253.234375 339.28125 253.253906 339.328125 253.269531 C 339.339844 253.273438 339.347656 253.277344 339.355469 253.28125 C 339.398438 253.292969 339.4375 253.296875 339.476562 253.304688 C 339.511719 253.308594 339.542969 253.320312 339.574219 253.324219 C 339.65625 253.332031 339.734375 253.335938 339.816406 253.332031 C 339.820312 253.332031 339.824219 253.332031 339.828125 253.332031 C 339.917969 253.324219 340 253.308594 340.085938 253.289062 C 340.089844 253.285156 340.097656 253.285156 340.101562 253.285156 C 340.164062 253.265625 340.226562 253.246094 340.28125 253.222656 C 340.285156 253.21875 340.289062 253.21875 340.292969 253.21875 C 340.355469 253.1875 340.414062 253.15625 340.472656 253.117188 C 340.488281 253.109375 340.503906 253.101562 340.515625 253.089844 C 340.574219 253.050781 340.628906 253.007812 340.679688 252.960938 C 340.691406 252.949219 340.699219 252.9375 340.710938 252.929688 C 340.761719 252.878906 340.804688 252.828125 340.847656 252.769531 C 340.851562 252.769531 340.851562 252.765625 340.851562 252.765625 C 340.894531 252.707031 340.933594 252.644531 340.964844 252.578125 C 340.972656 252.5625 340.976562 252.550781 340.984375 252.535156 C 341.015625 252.472656 341.042969 252.40625 341.0625 252.335938 C 341.0625 252.332031 341.0625 252.332031 341.0625 252.328125 L 349.902344 221.570312 C 349.90625 221.550781 349.90625 221.535156 349.910156 221.515625 C 349.921875 221.46875 349.929688 221.417969 349.9375 221.371094 C 349.945312 221.328125 349.949219 221.285156 349.949219 221.246094 C 349.953125 221.199219 349.949219 221.152344 349.949219 221.109375 C 349.945312 221.0625 349.941406 221.019531 349.933594 220.976562 C 349.929688 220.933594 349.917969 220.890625 349.90625 220.847656 C 349.894531 220.800781 349.882812 220.757812 349.863281 220.710938 C 349.859375 220.695312 349.855469 220.675781 349.847656 220.660156 L 341.746094 201.234375 L 342.878906 198.40625 C 346.796875 198.070312 350.617188 197.109375 354.203125 195.570312 C 356.59375 194.546875 358.878906 193.265625 361.023438 191.746094 C 366.773438 187.664062 371.207031 182.03125 373.835938 175.453125 C 377.480469 166.347656 377.359375 156.367188 373.492188 147.351562 C 369.628906 138.335938 362.488281 131.367188 353.382812 127.722656 C 334.582031 120.203125 313.171875 129.382812 305.652344 148.179688 Z M 312.785156 192.214844 L 338.304688 202.421875 L 336.546875 206.820312 L 311.023438 196.613281 Z M 335.523438 209.378906 L 333.761719 213.78125 L 308.242188 203.574219 L 310.003906 199.171875 Z M 302.503906 210.503906 L 281.078125 223.390625 L 293.402344 199.785156 L 309.652344 192.632812 Z M 321.550781 223.429688 L 310.433594 218.980469 L 311.578125 216.117188 L 322.699219 220.5625 Z M 325.011719 218.523438 C 325.007812 218.519531 325.003906 218.519531 325 218.515625 C 324.996094 218.515625 324.988281 218.515625 324.984375 218.511719 L 311.332031 213.050781 C 311.328125 213.050781 311.328125 213.046875 311.324219 213.046875 C 311.320312 213.046875 311.320312 213.046875 311.316406 213.046875 L 305.398438 210.679688 L 307.21875 206.128906 L 332.738281 216.339844 L 330.921875 220.886719 Z M 347.121094 221.273438 L 339.765625 246.867188 L 333.140625 222.757812 L 338.589844 209.125 C 338.589844 209.125 338.59375 209.125 338.59375 209.125 C 338.59375 209.125 338.59375 209.125 338.59375 209.121094 L 340.285156 204.886719 Z M 371.28125 174.429688 C 366.429688 186.550781 354.871094 194.910156 341.832031 195.722656 C 341.800781 195.726562 341.773438 195.734375 341.742188 195.738281 C 341.691406 195.746094 341.644531 195.75 341.59375 195.761719 C 341.550781 195.773438 341.507812 195.789062 341.464844 195.804688 C 341.425781 195.816406 341.382812 195.832031 341.34375 195.851562 C 341.300781 195.867188 341.261719 195.890625 341.222656 195.914062 C 341.1875 195.9375 341.148438 195.957031 341.113281 195.984375 C 341.078125 196.007812 341.046875 196.039062 341.011719 196.066406 C 340.976562 196.097656 340.945312 196.128906 340.914062 196.160156 C 340.882812 196.191406 340.859375 196.226562 340.832031 196.261719 C 340.804688 196.296875 340.777344 196.332031 340.75 196.371094 C 340.726562 196.414062 340.703125 196.457031 340.683594 196.503906 C 340.667969 196.53125 340.652344 196.554688 340.640625 196.585938 L 339.328125 199.863281 L 313.808594 189.65625 L 315.121094 186.378906 C 315.132812 186.351562 315.136719 186.320312 315.144531 186.292969 C 315.160156 186.242188 315.175781 186.195312 315.1875 186.144531 C 315.195312 186.101562 315.199219 186.058594 315.203125 186.015625 C 315.210938 185.96875 315.214844 185.925781 315.214844 185.882812 C 315.214844 185.835938 315.210938 185.789062 315.207031 185.746094 C 315.203125 185.703125 315.199219 185.660156 315.191406 185.617188 C 315.183594 185.574219 315.171875 185.53125 315.160156 185.488281 C 315.148438 185.445312 315.136719 185.402344 315.117188 185.359375 C 315.101562 185.320312 315.082031 185.28125 315.0625 185.242188 C 315.039062 185.203125 315.023438 185.164062 314.996094 185.125 C 314.96875 185.082031 314.9375 185.042969 314.90625 185.003906 C 314.886719 184.980469 314.871094 184.953125 314.851562 184.929688 C 305.96875 175.347656 303.363281 161.324219 308.210938 149.203125 C 315.164062 131.816406 334.96875 123.324219 352.359375 130.28125 C 360.78125 133.648438 367.386719 140.097656 370.960938 148.4375 C 374.535156 156.777344 374.648438 166.007812 371.28125 174.429688 Z M 371.28125 174.429688 " fill-opacity="1" fill-rule="nonzero"/></g></g></g><g clip-path="url(#cda953e77e)"><g clip-path="url(#bdfa4b13cb)"><g clip-path="url(#1048aa861d)"><path fill="#03989e" d="M 356.566406 122.390625 C 356.886719 122.25 357.160156 121.988281 357.300781 121.636719 L 359.371094 116.460938 C 359.652344 115.753906 359.308594 114.953125 358.601562 114.671875 C 357.898438 114.386719 357.09375 114.730469 356.8125 115.4375 L 354.742188 120.613281 C 354.460938 121.316406 354.804688 122.121094 355.511719 122.402344 C 355.863281 122.542969 356.242188 122.527344 356.566406 122.390625 Z M 356.566406 122.390625 " fill-opacity="1" fill-rule="nonzero"/></g></g></g><g clip-path="url(#20b8c607ae)"><g clip-path="url(#7ef013592b)"><g clip-path="url(#c5ce2a76c0)"><path fill="#03989e" d="M 334.046875 119.84375 C 334.171875 119.824219 334.285156 119.792969 334.394531 119.746094 C 334.953125 119.503906 335.304688 118.914062 335.214844 118.28125 L 334.421875 112.765625 C 334.3125 112.015625 333.613281 111.492188 332.863281 111.601562 C 332.109375 111.710938 331.585938 112.40625 331.695312 113.160156 L 332.488281 118.675781 C 332.597656 119.429688 333.296875 119.949219 334.046875 119.84375 Z M 334.046875 119.84375 " fill-opacity="1" fill-rule="nonzero"/></g></g></g><g clip-path="url(#388c280a45)"><g clip-path="url(#dec586e537)"><g clip-path="url(#013bf04568)"><path fill="#03989e" d="M 312.246094 128.125 C 312.640625 128.628906 313.3125 128.78125 313.871094 128.542969 C 313.980469 128.496094 314.085938 128.433594 314.183594 128.359375 C 314.78125 127.886719 314.882812 127.019531 314.414062 126.421875 L 310.96875 122.042969 C 310.496094 121.445312 309.632812 121.339844 309.03125 121.8125 C 308.433594 122.28125 308.332031 123.148438 308.800781 123.746094 Z M 312.246094 128.125 " fill-opacity="1" fill-rule="nonzero"/></g></g></g><g clip-path="url(#b72f2baa13)"><g clip-path="url(#db6b6100d8)"><g clip-path="url(#08714ba6ba)"><path fill="#03989e" d="M 299.441406 146.429688 C 299.796875 146.574219 300.171875 146.558594 300.496094 146.417969 C 300.820312 146.28125 301.09375 146.015625 301.234375 145.664062 C 301.515625 144.957031 301.171875 144.15625 300.464844 143.875 L 295.292969 141.804688 C 294.585938 141.523438 293.785156 141.867188 293.503906 142.570312 C 293.21875 143.277344 293.5625 144.078125 294.269531 144.363281 Z M 299.441406 146.429688 " fill-opacity="1" fill-rule="nonzero"/></g></g></g><g clip-path="url(#d00f30f818)"><g clip-path="url(#74dcf3e95e)"><g clip-path="url(#c4b06b9c27)"><path fill="#03989e" d="M 291.992188 169.480469 L 297.507812 168.6875 C 297.628906 168.667969 297.746094 168.636719 297.855469 168.589844 C 298.414062 168.351562 298.765625 167.757812 298.675781 167.128906 C 298.566406 166.375 297.867188 165.851562 297.117188 165.960938 L 291.601562 166.753906 C 290.847656 166.859375 290.324219 167.558594 290.433594 168.3125 C 290.539062 169.066406 291.238281 169.589844 291.992188 169.480469 Z M 291.992188 169.480469 " fill-opacity="1" fill-rule="nonzero"/></g></g></g><g clip-path="url(#bb83ff65e3)"><g clip-path="url(#2472335a4f)"><g clip-path="url(#c09a4eff31)"><path fill="#03989e" d="M 367.757812 194.21875 C 367.289062 193.621094 366.421875 193.515625 365.824219 193.988281 C 365.226562 194.457031 365.121094 195.324219 365.59375 195.921875 L 369.039062 200.300781 C 369.433594 200.800781 370.105469 200.953125 370.664062 200.714844 C 370.773438 200.667969 370.875 200.605469 370.972656 200.53125 C 371.570312 200.058594 371.675781 199.195312 371.203125 198.597656 Z M 367.757812 194.21875 " fill-opacity="1" fill-rule="nonzero"/></g></g></g><g clip-path="url(#4ecb1c8ac1)"><g clip-path="url(#ea85d495f0)"><g clip-path="url(#c18b4c9389)"><path fill="#03989e" d="M 380.5625 175.914062 C 379.855469 175.628906 379.054688 175.972656 378.773438 176.679688 C 378.492188 177.386719 378.835938 178.1875 379.539062 178.46875 L 384.714844 180.539062 C 385.066406 180.679688 385.441406 180.664062 385.765625 180.527344 C 386.089844 180.386719 386.363281 180.125 386.503906 179.769531 C 386.785156 179.066406 386.441406 178.261719 385.734375 177.980469 Z M 380.5625 175.914062 " fill-opacity="1" fill-rule="nonzero"/></g></g></g><g clip-path="url(#88ad136e03)"><g clip-path="url(#bbd8b4397b)"><g clip-path="url(#bd5e956a15)"><path fill="#03989e" d="M 388.011719 152.863281 L 382.5 153.65625 C 381.746094 153.765625 381.222656 154.464844 381.332031 155.214844 C 381.441406 155.96875 382.140625 156.492188 382.890625 156.382812 L 388.40625 155.589844 C 388.527344 155.570312 388.644531 155.539062 388.753906 155.492188 C 389.3125 155.25 389.664062 154.660156 389.574219 154.027344 C 389.464844 153.273438 388.765625 152.753906 388.011719 152.863281 Z M 388.011719 152.863281 " fill-opacity="1" fill-rule="nonzero"/></g></g></g><g clip-path="url(#aff923a49b)"><g clip-path="url(#6132e1a3e8)"><g clip-path="url(#b16de7b035)"><path fill="#03989e" d="M 374.441406 135.765625 C 374.550781 135.71875 374.65625 135.65625 374.753906 135.582031 L 379.132812 132.136719 C 379.730469 131.664062 379.832031 130.796875 379.363281 130.199219 C 378.890625 129.601562 378.027344 129.5 377.425781 129.96875 L 373.046875 133.414062 C 372.449219 133.886719 372.347656 134.75 372.816406 135.347656 C 373.210938 135.851562 373.882812 136.003906 374.441406 135.765625 Z M 374.441406 135.765625 " fill-opacity="1" fill-rule="nonzero"/></g></g></g><g clip-path="url(#aef9d95140)"><g clip-path="url(#e0412bfabd)"><g clip-path="url(#19eb3d6021)"><path fill="#03989e" d="M 312.496094 229.425781 C 311.789062 229.144531 310.988281 229.484375 310.703125 230.191406 L 299.46875 258.285156 C 299.1875 258.992188 299.53125 259.792969 300.234375 260.074219 C 300.589844 260.214844 300.964844 260.199219 301.289062 260.0625 C 301.613281 259.921875 301.886719 259.660156 302.027344 259.308594 L 313.261719 231.214844 C 313.542969 230.507812 313.199219 229.707031 312.496094 229.425781 Z M 312.496094 229.425781 " fill-opacity="1" fill-rule="nonzero"/></g></g></g><g clip-path="url(#eec4508b66)"><g clip-path="url(#3cada98c15)"><g clip-path="url(#98d7f6aaca)"><path fill="#03989e" d="M 295.835938 249.609375 C 295.550781 250.316406 295.894531 251.117188 296.601562 251.402344 C 296.957031 251.542969 297.332031 251.527344 297.65625 251.386719 C 297.980469 251.25 298.25 250.988281 298.390625 250.632812 L 308.332031 225.78125 C 308.617188 225.074219 308.273438 224.273438 307.566406 223.988281 C 306.859375 223.707031 306.058594 224.050781 305.777344 224.757812 Z M 295.835938 249.609375 " fill-opacity="1" fill-rule="nonzero"/></g></g></g><g clip-path="url(#48b7a5b5d1)"><g clip-path="url(#5ecc631f7c)"><g clip-path="url(#3e36ccf81d)"><path fill="#03989e" d="M 294.34375 243 L 304.003906 218.851562 C 304.285156 218.144531 303.941406 217.34375 303.234375 217.058594 C 302.527344 216.777344 301.726562 217.121094 301.445312 217.828125 L 291.785156 241.976562 C 291.503906 242.683594 291.847656 243.484375 292.554688 243.765625 C 292.90625 243.90625 293.28125 243.894531 293.605469 243.753906 C 293.929688 243.613281 294.203125 243.351562 294.34375 243 Z M 294.34375 243 " fill-opacity="1" fill-rule="nonzero"/></g></g></g><g clip-path="url(#671c23c94f)"><g clip-path="url(#941d365bbc)"><g clip-path="url(#d332566411)"><path fill="#03989e" d="M 327.726562 226.855469 C 327.019531 226.574219 326.21875 226.917969 325.9375 227.625 L 316.277344 251.773438 C 315.996094 252.480469 316.339844 253.28125 317.042969 253.5625 C 317.398438 253.703125 317.773438 253.6875 318.097656 253.550781 C 318.421875 253.410156 318.695312 253.148438 318.835938 252.796875 L 328.496094 228.644531 C 328.777344 227.941406 328.433594 227.136719 327.726562 226.855469 Z M 327.726562 226.855469 " fill-opacity="1" fill-rule="nonzero"/></g></g></g><g clip-path="url(#3852298b80)"><g clip-path="url(#9bb1684f27)"><g clip-path="url(#d0388e964b)"><path fill="#03989e" d="M 319.8125 228.886719 C 319.105469 228.605469 318.304688 228.949219 318.023438 229.652344 L 308.082031 254.507812 C 307.796875 255.214844 308.140625 256.015625 308.847656 256.296875 C 309.203125 256.441406 309.578125 256.425781 309.902344 256.285156 C 310.226562 256.148438 310.496094 255.882812 310.640625 255.53125 L 320.578125 230.675781 C 320.863281 229.972656 320.519531 229.167969 319.8125 228.886719 Z M 319.8125 228.886719 " fill-opacity="1" fill-rule="nonzero"/></g></g></g><g clip-path="url(#4e8552e904)"><g clip-path="url(#28a556f3ef)"><g clip-path="url(#23acfd92df)"><path fill="#03989e" d="M 344.75 151.429688 C 344.71875 151.378906 344.6875 151.332031 344.648438 151.289062 C 344.644531 151.28125 344.644531 151.277344 344.640625 151.273438 C 344.621094 151.25 344.59375 151.234375 344.574219 151.210938 C 344.535156 151.171875 344.5 151.132812 344.457031 151.101562 C 344.421875 151.074219 344.386719 151.050781 344.351562 151.027344 C 344.3125 151.003906 344.273438 150.976562 344.234375 150.957031 C 344.195312 150.9375 344.152344 150.921875 344.113281 150.90625 C 344.070312 150.886719 344.027344 150.871094 343.984375 150.855469 C 343.941406 150.84375 343.902344 150.839844 343.859375 150.832031 C 343.8125 150.820312 343.769531 150.8125 343.722656 150.808594 C 343.671875 150.804688 343.625 150.804688 343.574219 150.804688 C 343.539062 150.808594 343.507812 150.800781 343.472656 150.804688 C 343.464844 150.804688 343.457031 150.808594 343.453125 150.808594 C 343.402344 150.816406 343.351562 150.828125 343.300781 150.839844 C 343.261719 150.847656 343.222656 150.851562 343.183594 150.867188 C 343.144531 150.878906 343.109375 150.894531 343.074219 150.910156 C 343.027344 150.929688 342.980469 150.949219 342.933594 150.972656 C 342.90625 150.988281 342.882812 151.007812 342.855469 151.027344 C 342.804688 151.058594 342.753906 151.089844 342.710938 151.128906 C 342.707031 151.132812 342.703125 151.132812 342.695312 151.136719 L 331.828125 160.589844 C 331.816406 160.601562 331.808594 160.613281 331.796875 160.621094 C 331.757812 160.660156 331.722656 160.699219 331.6875 160.738281 C 331.664062 160.769531 331.636719 160.796875 331.613281 160.832031 C 331.585938 160.867188 331.5625 160.910156 331.539062 160.953125 C 331.515625 160.992188 331.496094 161.03125 331.476562 161.070312 C 331.46875 161.089844 331.460938 161.101562 331.453125 161.117188 L 320.488281 188.527344 C 320.207031 189.234375 320.550781 190.035156 321.257812 190.316406 C 321.964844 190.601562 322.765625 190.257812 323.046875 189.550781 L 333.5 163.421875 L 343.160156 167.285156 L 332.707031 193.414062 C 332.425781 194.121094 332.769531 194.921875 333.476562 195.203125 C 333.828125 195.347656 334.207031 195.332031 334.53125 195.191406 C 334.855469 195.054688 335.125 194.789062 335.265625 194.4375 L 346.21875 167.054688 C 346.257812 166.96875 346.28125 166.878906 346.300781 166.785156 C 346.304688 166.765625 346.304688 166.75 346.308594 166.734375 C 346.316406 166.667969 346.324219 166.601562 346.324219 166.535156 C 346.324219 166.511719 346.324219 166.488281 346.324219 166.464844 C 346.324219 166.4375 346.324219 166.414062 346.324219 166.390625 L 344.972656 152.046875 C 344.972656 152.042969 344.96875 152.035156 344.96875 152.03125 C 344.960938 151.972656 344.949219 151.917969 344.933594 151.863281 C 344.925781 151.828125 344.921875 151.796875 344.914062 151.761719 C 344.898438 151.71875 344.878906 151.679688 344.859375 151.636719 C 344.84375 151.59375 344.828125 151.550781 344.804688 151.511719 C 344.789062 151.484375 344.769531 151.457031 344.75 151.429688 Z M 343.367188 164.402344 L 335.339844 161.1875 L 342.480469 154.976562 Z M 343.367188 164.402344 " fill-opacity="1" fill-rule="nonzero"/></g></g></g><g clip-path="url(#86145b0fb2)"><g clip-path="url(#116dc252c7)"><g clip-path="url(#c49a935bff)"><path fill="#03989e" d="M 337.125 169.214844 C 336.421875 168.929688 335.617188 169.273438 335.335938 169.980469 L 326.894531 191.089844 C 326.613281 191.792969 326.953125 192.597656 327.660156 192.878906 C 328.015625 193.019531 328.390625 193.003906 328.714844 192.867188 C 329.039062 192.726562 329.3125 192.464844 329.453125 192.109375 L 337.894531 171.003906 C 338.175781 170.296875 337.832031 169.496094 337.125 169.214844 Z M 337.125 169.214844 " fill-opacity="1" fill-rule="nonzero"/></g></g></g></svg>