<svg width="60" height="60" viewBox="0 0 60 60" fill="none" xmlns="http://www.w3.org/2000/svg">
<g filter="url(#filter0_d_551_1898)">
<path d="M2.5 13C2.5 6.64873 7.64873 1.5 14 1.5H46C52.3513 1.5 57.5 6.64873 57.5 13V45C57.5 51.3513 52.3513 56.5 46 56.5H14C7.64873 56.5 2.5 51.3513 2.5 45V13Z" stroke="#1099A0" shape-rendering="crispEdges"/>
<path fill-rule="evenodd" clip-rule="evenodd" d="M25.75 25.5C25.75 21.2198 29.2198 17.75 33.5 17.75C37.7802 17.75 41.25 21.2198 41.25 25.5C41.25 29.7802 37.7802 33.25 33.5 33.25C33.1472 33.25 32.7995 33.2264 32.4585 33.1805C32.1993 33.1457 32.0259 33.1225 31.8965 33.11C31.7795 33.0987 31.7417 33.1012 31.7417 33.1009C31.7417 33.1008 31.7427 33.1007 31.7446 33.1004C31.6867 33.1087 31.6716 33.1141 31.6691 33.1149C31.6662 33.1159 31.6505 33.1212 31.6004 33.1492C31.6018 33.1484 31.5803 33.1597 31.5114 33.2225C31.4402 33.2874 31.3501 33.3772 31.206 33.5213L29.3636 35.3637C29.223 35.5043 29.0322 35.5833 28.8333 35.5833H27.25V37.1667C27.25 37.5809 26.9142 37.9167 26.5 37.9167H24.9166V39.5C24.9166 39.9142 24.5809 40.25 24.1666 40.25H21.3394C21.0361 40.25 20.7647 40.25 20.5393 40.2316C20.2984 40.2119 20.0446 40.1675 19.7965 40.0411C19.4359 39.8573 19.1426 39.5641 18.9589 39.2035C18.8325 38.9553 18.788 38.7016 18.7684 38.4607C18.7499 38.2352 18.75 37.9639 18.75 37.6606L18.75 35.6065C18.75 35.5887 18.75 35.5708 18.7499 35.553C18.7496 35.3216 18.7493 35.0926 18.8029 34.8691C18.8499 34.6736 18.9273 34.4866 19.0324 34.3151C19.1525 34.1192 19.3146 33.9575 19.4785 33.7941C19.4911 33.7815 19.5038 33.7689 19.5164 33.7563L25.4786 27.794C25.6228 27.6499 25.7126 27.5598 25.7775 27.4886C25.8402 27.4196 25.8516 27.3981 25.8508 27.3996C25.8788 27.3494 25.8841 27.3339 25.885 27.331C25.8859 27.3285 25.8912 27.3133 25.8995 27.2553C25.8993 27.2573 25.8991 27.2583 25.8991 27.2583C25.8988 27.2583 25.9013 27.2205 25.89 27.1035C25.8775 26.9741 25.8543 26.8007 25.8194 26.5415C25.7736 26.2005 25.75 25.8528 25.75 25.5ZM33.5 19.25C30.0482 19.25 27.25 22.0482 27.25 25.5C27.25 25.7858 27.2691 26.0667 27.3061 26.3416L27.308 26.3562C27.3404 26.597 27.3675 26.7986 27.383 26.9593C27.3981 27.1159 27.4093 27.2941 27.3844 27.4677C27.3475 27.7259 27.2873 27.9039 27.1601 28.1315C27.0284 28.3671 26.8162 28.5786 26.5951 28.799C26.5765 28.8175 26.5579 28.836 26.5393 28.8547L20.577 34.8169C20.35 35.0439 20.3264 35.0744 20.3114 35.0989C20.2885 35.1362 20.2717 35.1768 20.2615 35.2193C20.2548 35.2472 20.25 35.2855 20.25 35.6065V37.6333C20.25 37.9724 20.2506 38.1816 20.2634 38.3385C20.2753 38.4841 20.294 38.5198 20.2953 38.5224C20.3353 38.6008 20.3991 38.6646 20.4775 38.7046C20.48 38.7059 20.5159 38.7247 20.6615 38.7366C20.8184 38.7494 21.0276 38.75 21.3666 38.75H23.4166V37.1667C23.4166 36.7525 23.7524 36.4167 24.1666 36.4167H25.75V34.8333C25.75 34.4191 26.0858 34.0833 26.5 34.0833H28.5226L30.1453 32.4607C30.1639 32.442 30.1825 32.4234 30.201 32.4049C30.4214 32.1837 30.6329 31.9716 30.8685 31.8399C31.0961 31.7126 31.2741 31.6525 31.5323 31.6156C31.7059 31.5907 31.8841 31.6018 32.0407 31.617C32.2014 31.6325 32.4029 31.6596 32.6437 31.6919L32.6584 31.6939C32.9333 31.7309 33.2142 31.75 33.5 31.75C36.9518 31.75 39.75 28.9518 39.75 25.5C39.75 22.0482 36.9518 19.25 33.5 19.25ZM32.75 23.1667C32.75 22.7525 33.0858 22.4167 33.5 22.4167C34.2879 22.4167 35.0783 22.7178 35.6802 23.3198C36.2821 23.9216 36.5833 24.712 36.5833 25.4999C36.5833 25.9141 36.2475 26.2499 35.8333 26.2499C35.4191 26.2499 35.0833 25.9142 35.0833 25.5C35.0833 25.0936 34.9289 24.6897 34.6196 24.3804C34.3102 24.0711 33.9063 23.9167 33.5 23.9167C33.0858 23.9167 32.75 23.5809 32.75 23.1667Z" fill="#1099A0"/>
</g>
<defs>
<filter id="filter0_d_551_1898" x="0" y="0" width="60" height="60" filterUnits="userSpaceOnUse" color-interpolation-filters="sRGB">
<feFlood flood-opacity="0" result="BackgroundImageFix"/>
<feColorMatrix in="SourceAlpha" type="matrix" values="0 0 0 0 0 0 0 0 0 0 0 0 0 0 0 0 0 0 127 0" result="hardAlpha"/>
<feOffset dy="1"/>
<feGaussianBlur stdDeviation="1"/>
<feComposite in2="hardAlpha" operator="out"/>
<feColorMatrix type="matrix" values="0 0 0 0 0.0627451 0 0 0 0 0.0941176 0 0 0 0 0.156863 0 0 0 0.05 0"/>
<feBlend mode="normal" in2="BackgroundImageFix" result="effect1_dropShadow_551_1898"/>
<feBlend mode="normal" in="SourceGraphic" in2="effect1_dropShadow_551_1898" result="shape"/>
</filter>
</defs>
</svg>
