<svg width="20" height="20" viewBox="0 0 20 20" fill="none" xmlns="http://www.w3.org/2000/svg">
<path fill-rule="evenodd" clip-rule="evenodd" d="M4.37434 5.95261C5.05265 3.48188 7.31365 1.66675 9.99998 1.66675C12.6863 1.66675 14.9473 3.48189 15.6256 5.95261C17.6551 6.42476 19.1666 8.24383 19.1666 10.4167C19.1666 12.0066 18.3564 13.407 17.1302 14.2278C16.7477 14.4838 16.2302 14.3813 15.9741 13.9988C15.7181 13.6164 15.8206 13.0988 16.2031 12.8428C16.9869 12.3181 17.5 11.4272 17.5 10.4167C17.5 8.89824 16.3389 7.64995 14.8567 7.51267C14.4791 7.4777 14.1727 7.19224 14.1112 6.81807C13.7863 4.84148 12.0684 3.33341 9.99998 3.33341C7.93152 3.33341 6.21367 4.84148 5.88873 6.81807C5.82722 7.19224 5.52085 7.4777 5.14328 7.51267C3.66105 7.64995 2.49998 8.89824 2.49998 10.4167C2.49998 11.4272 3.01311 12.3181 3.79686 12.8428C4.17932 13.0988 4.28183 13.6164 4.02582 13.9988C3.76981 14.3813 3.25222 14.4838 2.86976 14.2278C1.64354 13.407 0.833313 12.0066 0.833313 10.4167C0.833313 8.24383 2.3449 6.42476 4.37434 5.95261ZM9.16665 12.0119L7.2559 13.9227C6.93047 14.2481 6.40283 14.2481 6.07739 13.9227C5.75195 13.5972 5.75195 13.0696 6.07739 12.7442L9.41072 9.41083C9.73616 9.08539 10.2638 9.08539 10.5892 9.41083L13.9226 12.7442C14.248 13.0696 14.248 13.5972 13.9226 13.9227C13.5971 14.2481 13.0695 14.2481 12.7441 13.9227L10.8333 12.0119V17.5001C10.8333 17.9603 10.4602 18.3334 9.99998 18.3334C9.53974 18.3334 9.16665 17.9603 9.16665 17.5001V12.0119Z" fill="#1099A0"/>
</svg>
